<svg
        xmlns="http://www.w3.org/2000/svg"
        xmlns:xlink="http://www.w3.org/1999/xlink"
        width="6px" height="12px">
    <path fill-rule="evenodd"  fill="rgb(41, 137, 84)"
          d="M3.255,11.573 L5.914,7.801 C5.943,7.761 5.945,7.709 5.923,7.667 C5.900,7.624 5.855,7.597 5.805,7.597 L0.486,7.597 C0.437,7.597 0.391,7.624 0.368,7.667 C0.358,7.686 0.353,7.707 0.353,7.727 C0.353,7.753 0.361,7.779 0.377,7.801 L3.036,11.573 C3.061,11.609 3.102,11.630 3.146,11.630 C3.189,11.630 3.230,11.608 3.255,11.573 Z"/>
    <path fill-rule="evenodd"  fill="rgb(41, 137, 84)"
          d="M3.035,0.829 L0.376,4.601 C0.348,4.641 0.345,4.693 0.368,4.736 C0.391,4.778 0.436,4.805 0.485,4.805 L5.804,4.805 C5.854,4.805 5.899,4.778 5.922,4.736 C5.932,4.717 5.937,4.696 5.937,4.675 C5.937,4.649 5.929,4.624 5.914,4.601 L3.254,0.829 C3.229,0.794 3.188,0.773 3.145,0.773 C3.101,0.773 3.060,0.794 3.035,0.829 Z"/>
</svg>