<svg
        xmlns="http://www.w3.org/2000/svg"
        xmlns:xlink="http://www.w3.org/1999/xlink"
        width="9px" height="15px">
    <path fill-rule="evenodd"  fill="rgb(255, 255, 255)"
          d="M8.199,0.002 L6.280,-0.001 C4.124,-0.001 2.731,1.448 2.731,3.692 L2.731,5.394 L0.802,5.394 C0.635,5.394 0.500,5.530 0.500,5.699 L0.500,8.165 C0.500,8.334 0.635,8.471 0.802,8.471 L2.731,8.471 L2.731,14.694 C2.731,14.863 2.866,15.000 3.033,15.000 L5.550,15.000 C5.717,15.000 5.852,14.863 5.852,14.694 L5.852,8.471 L8.107,8.471 C8.274,8.471 8.409,8.334 8.409,8.165 L8.410,5.699 C8.410,5.618 8.378,5.540 8.322,5.483 C8.265,5.425 8.188,5.394 8.108,5.394 L5.852,5.394 L5.852,3.950 C5.852,3.257 6.015,2.905 6.906,2.905 L8.198,2.904 C8.365,2.904 8.500,2.767 8.500,2.598 L8.500,0.309 C8.500,0.139 8.365,0.003 8.199,0.002 Z"/>
</svg>