<svg
        xmlns="http://www.w3.org/2000/svg"
        xmlns:xlink="http://www.w3.org/1999/xlink"
        width="20px" height="16px">
    <path fill-rule="evenodd"  fill="rgb(255, 255, 255)"
          d="M18.364,8.145 L18.364,9.595 L17.133,9.595 L17.133,8.145 L15.698,8.145 L15.698,6.902 L17.133,6.902 L17.133,5.452 L18.364,5.452 L18.364,6.902 L19.800,6.902 L19.800,8.145 L18.364,8.145 ZM7.721,15.345 C3.567,15.345 0.200,11.944 0.200,7.750 C0.200,3.555 3.567,0.155 7.721,0.155 C9.770,0.155 11.627,0.983 12.984,2.325 L11.285,4.189 C10.377,3.261 9.115,2.687 7.721,2.687 C4.952,2.687 2.707,4.953 2.707,7.750 C2.707,10.546 4.952,12.813 7.721,12.813 C9.966,12.813 11.866,11.323 12.505,9.268 L8.222,9.268 L8.222,6.906 L15.242,6.906 L15.242,6.906 L15.242,9.268 C14.545,12.735 11.359,15.345 7.721,15.345 Z"/>
</svg>