<svg
        xmlns="http://www.w3.org/2000/svg"
        xmlns:xlink="http://www.w3.org/1999/xlink"
        width="17px" height="16px">
    <path fill-rule="evenodd"  fill="rgb(255, 255, 255)"
          d="M16.500,9.503 L16.500,15.500 L13.071,15.500 L13.071,9.904 C13.071,8.499 12.575,7.540 11.333,7.540 C10.386,7.540 9.822,8.186 9.574,8.811 C9.483,9.035 9.460,9.346 9.460,9.659 L9.460,15.500 L6.030,15.500 C6.030,15.500 6.076,6.023 6.030,5.041 L9.460,5.041 L9.460,6.523 C9.453,6.535 9.444,6.547 9.437,6.557 L9.460,6.557 L9.460,6.523 C9.915,5.812 10.729,4.795 12.551,4.795 C14.808,4.795 16.500,6.291 16.500,9.503 ZM2.441,-0.000 C1.268,-0.000 0.500,0.780 0.500,1.807 C0.500,2.810 1.245,3.614 2.396,3.614 L2.419,3.614 C3.615,3.614 4.359,2.810 4.359,1.807 C4.336,0.780 3.615,-0.000 2.441,-0.000 ZM0.704,15.500 L4.133,15.500 L4.133,5.041 L0.704,5.041 L0.704,15.500 Z"/>
</svg>