<svg
        xmlns="http://www.w3.org/2000/svg"
        xmlns:xlink="http://www.w3.org/1999/xlink"
        width="20px" height="16px">
    <path fill-rule="evenodd"  fill="rgb(255, 255, 255)"
          d="M18.580,1.789 C18.290,1.920 17.991,2.032 17.686,2.122 C18.047,1.704 18.323,1.212 18.491,0.672 C18.529,0.552 18.490,0.420 18.393,0.341 C18.296,0.262 18.161,0.252 18.055,0.317 C17.406,0.711 16.707,0.993 15.973,1.159 C15.234,0.420 14.231,-0.000 13.193,-0.000 C11.003,-0.000 9.222,1.823 9.222,4.063 C9.222,4.241 9.233,4.416 9.254,4.589 C6.537,4.344 4.011,2.978 2.276,0.800 C2.214,0.723 2.119,0.680 2.021,0.688 C1.924,0.696 1.836,0.753 1.787,0.839 C1.435,1.457 1.249,2.164 1.249,2.883 C1.249,3.862 1.591,4.791 2.194,5.517 C2.010,5.452 1.832,5.371 1.662,5.274 C1.571,5.222 1.460,5.223 1.369,5.277 C1.279,5.330 1.222,5.427 1.219,5.534 C1.219,5.553 1.219,5.570 1.219,5.589 C1.219,7.050 1.988,8.366 3.163,9.083 C3.062,9.073 2.961,9.058 2.861,9.038 C2.757,9.018 2.651,9.056 2.581,9.136 C2.512,9.217 2.489,9.329 2.521,9.432 C2.956,10.822 4.076,11.844 5.430,12.155 C4.307,12.876 3.023,13.252 1.674,13.252 C1.393,13.252 1.110,13.236 0.833,13.202 C0.696,13.185 0.564,13.268 0.517,13.403 C0.470,13.537 0.520,13.686 0.637,13.763 C2.369,14.899 4.372,15.500 6.429,15.500 C10.472,15.500 13.001,13.548 14.411,11.911 C16.169,9.871 17.178,7.169 17.178,4.500 C17.178,4.388 17.176,4.275 17.173,4.163 C17.866,3.629 18.463,2.981 18.949,2.237 C19.023,2.125 19.015,1.975 18.930,1.871 C18.844,1.767 18.702,1.734 18.580,1.789 Z"/>
</svg>