<?xml version="1.0" encoding="utf-8"?>
<!-- Generator: Adobe Illustrator 22.0.1, SVG Export Plug-In . SVG Version: 6.00 Build 0)  -->
<svg version="1.1" id="Режим_изоляции"
	 xmlns="http://www.w3.org/2000/svg" xmlns:xlink="http://www.w3.org/1999/xlink" x="0px" y="0px" width="615.1px"
	 height="2391.1px" viewBox="0 0 615.1 2391.1" style="enable-background:new 0 0 615.1 2391.1;" xml:space="preserve">
<style type="text/css">
	.st0{fill:#F7D746;}
	.st1{fill:#7EB748;}
</style>
<path class="st0" d="M1289.7,1873.5c-5.6,1.9-11.7-1.1-13.6-6.8c-0.7-2.1-0.7-4.3-0.2-6.3l-144.3-53.9c-0.3,0.1-0.5,0.2-0.8,0.3
	c-1.4,0.5-2.8,0.7-4.2,0.6l-42.6,260.4c3.4,0.9,6.3,3.4,7.5,7c1.9,5.7-1.1,11.9-6.7,13.8s-11.7-1.1-13.7-6.8
	c-0.8-2.3-0.7-4.6-0.1-6.7l-167.5-69.6c-1.2,2.4-3.3,4.3-6.1,5.3c-3.7,1.3-7.5,0.4-10.3-1.9l-90.7,92.7c0.8,1,1.5,2.2,2,3.5
	c1.9,5.7-1.1,11.9-6.7,13.8c-5.6,1.9-11.7-1.1-13.7-6.8c-1.2-3.5-0.5-7.1,1.5-9.8l-108-94.7c-1.1,1.1-2.4,1.9-4,2.4
	c-5.1,1.7-10.5-0.5-12.9-5.1l-132.1,63.6c1.8,5.7-1.2,11.8-6.8,13.7c-5.6,1.9-11.7-1.1-13.6-6.8c-0.3-1-0.5-2-0.6-3l-109.4-8.2
	c-0.6,3.8-3.3,7.2-7.2,8.5c-1,0.3-2,0.5-3,0.6l-9,168.3c3.9,0.6,7.3,3.3,8.6,7.3c1.9,5.7-1.1,11.9-6.7,13.8
	c-5.6,1.9-11.7-1.1-13.7-6.8c-0.1-0.4-0.2-0.8-0.3-1.3L116.5,2283c0.1,4.6-2.7,9-7.3,10.5c-5.6,1.9-11.7-1.1-13.7-6.8
	c-1.9-5.7,1.1-11.9,6.7-13.8c1.6-0.6,3.2-0.7,4.8-0.5l78.5-355.1c-2.9-1.1-5.2-3.5-6.3-6.6c-1.9-5.7,1.1-11.9,6.7-13.8
	c5.6-1.9,11.7,1.1,13.6,6.8c0.2,0.6,0.3,1.1,0.4,1.7l126.6-2.3c0.2-4.3,3-8.3,7.3-9.7c1.4-0.5,2.8-0.7,4.2-0.6l57.4-297
	c-3.2-1-6-3.4-7.2-6.9c-1.9-5.7,1.1-11.9,6.7-13.8c5.6-1.9,11.7,1.1,13.7,6.8c0.4,1.3,0.6,2.6,0.6,3.9l137.3,18.5
	c0.8-3.6,3.4-6.6,7-7.9l-1,0.3l-88.7-344.4c-5.1,0.8-10.2-2.1-11.9-7.2c-0.9-2.6-0.7-5.4,0.3-7.7l-129.7-70.5
	c-1.3,1.9-3.2,3.5-5.5,4.3c-5.6,1.9-11.7-1.1-13.6-6.8c-1.9-5.7,1.1-11.9,6.7-13.8c2.2-0.8,4.5-0.7,6.5-0.1l82.8-208.6
	c-2.4-1.2-4.3-3.4-5.3-6.2c-1.9-5.7,1.1-11.9,6.7-13.8c2.3-0.8,4.8-0.7,6.9,0l55.7-125.6c-2.2-1.3-4-3.3-4.9-6
	c-1.9-5.7,1.1-11.9,6.7-13.8c0.6-0.2,1.2-0.3,1.8-0.4l-11-252c-4.2-0.3-8-3.1-9.4-7.4c-1.1-3.2-0.6-6.6,1.1-9.3L313.7,399.9
	c-1.2,1.3-2.7,2.3-4.5,2.9c-5.6,1.9-11.7-1.1-13.6-6.8c-1.9-5.7,1.1-11.9,6.7-13.8c0,0,0.1,0,0.1,0l-25.5-201.9
	c-4.3-0.2-8.1-3-9.6-7.4c-1.9-5.7,1.1-11.9,6.7-13.8c4.4-1.5,9,0,11.8,3.4l136.1-71.6c-0.1-0.1-0.1-0.3-0.2-0.4
	c-1.9-5.7,1.1-11.9,6.7-13.8c5.6-1.9,11.7,1.1,13.6,6.8c0.5,1.3,0.6,2.7,0.6,4.1l142.2,13.8c0.7-3.7,3.3-7,7.1-8.3
	c5.6-1.9,11.7,1.1,13.7,6.8c1.5,4.5,0,9.2-3.5,12l136.7,210.5c0.5-0.3,1-0.5,1.6-0.7c5.6-1.9,11.7,1.1,13.7,6.8
	c1.9,5.7-1.1,11.9-6.7,13.8c-0.9,0.3-1.8,0.5-2.7,0.5l-3.3,139.8c4,0.5,7.6,3.2,8.9,7.3c1.9,5.7-1.1,11.9-6.7,13.8
	c-2.5,0.9-5.1,0.7-7.3-0.2l-67.7,137.5c2.1,1.3,3.7,3.3,4.5,5.8c0.9,2.7,0.7,5.5-0.4,7.9L986,832.2c1.3-1.9,3.1-3.4,5.4-4.1
	c5.6-1.9,11.7,1.1,13.6,6.8c1.9,5.7-1.1,11.9-6.7,13.8c-1.6,0.6-3.3,0.7-4.9,0.5L895,1276.6c5.3-1.2,10.8,1.8,12.6,7.1
	c1.9,5.7-1.1,11.9-6.7,13.8c-0.5,0.2-1,0.3-1.6,0.4l13.7,160.8c4.5,0,8.6,2.9,10.1,7.4c0.8,2.3,0.7,4.6,0.1,6.7l186.5,78.4l-0.2-2.8
	l2,3.5l1.1,0.5l-0.6,0.5l169.8,300.4c0.3-0.1,0.7-0.3,1-0.4c5.6-1.9,11.7,1.1,13.7,6.8C1298.4,1865.4,1295.4,1871.6,1289.7,1873.5z
	 M984.8,842.2l-171.1,48.5c0.9,5.2-2,10.5-7.1,12.3c0,0,0,0,0,0l25,105.7l155.2-163.2C985.9,844.5,985.3,843.4,984.8,842.2z
	 M280.9,179.7c-0.7,0.2-1.4,0.4-2.1,0.5l11.5,90.7l14,110.9c1-0.1,2.1-0.1,3.1,0l78.1-188.2l-97.6-21.4
	C287,175.6,284.5,178.5,280.9,179.7z M415.1,932.2c0,2.6-0.9,5.2-2.6,7.2l70.5,74.1l109.2-94.3c-0.6-0.8-1.1-1.8-1.4-2.8
	c-0.2-0.5-0.3-1-0.4-1.4L415.1,932.2z M472.4,1238.1c0.5,1.6,0.7,3.1,0.5,4.7l159.2,32.9l-143.8-51.4l-16.7,11.9
	C471.8,1236.8,472.1,1237.5,472.4,1238.1z M406.2,1593l144.1,172.5l100.9-64.9c-0.2-0.5-0.5-1-0.6-1.5c-0.8-2.3-0.7-4.6-0.1-6.7
	l-242.5-101.9C407.6,1591.4,407,1592.2,406.2,1593z M195.3,1916.3l61.7,116.9l73.8-121.1c-1.6-1.3-2.9-3-3.6-5.1
	c-0.2-0.7-0.4-1.4-0.5-2l-126.5,2.3C200.1,1911,198.3,1914.4,195.3,1916.3z M258.1,2035.3l109.2,206.8c0.2-0.1,0.5-0.2,0.7-0.3
	c0.5-0.2,0.9-0.3,1.4-0.4l-32.3-326.9c-1.6-0.1-3.2-0.5-4.6-1.2L258.1,2035.3z M116,2279.7c0.1,0.4,0.2,0.8,0.3,1.3l244.3-28.6
	c-0.1-3.7,1.7-7.3,4.8-9.3l-108.6-205.7l-144.6,237.2C113.9,2275.8,115.2,2277.6,116,2279.7z M915.4,1480.1
	c-2.1,0.5-4.2,0.4-6.1-0.3l-65.8,142l131.8,56.5c1.1-2.1,2.8-3.8,5.1-4.8L915.4,1480.1z M733.6,335.5c-0.9-2.6-0.7-5.2,0.2-7.5
	l-183.7-95.3c-0.5,0.8-1.1,1.5-1.8,2.2L703,442.1l36.2-100.3C736.7,340.6,734.6,338.4,733.6,335.5z M681.4,478.9L545.5,236.7
	c-0.3,0.1-0.6,0.3-1,0.4c-1.9,0.6-3.8,0.7-5.6,0.4l-58,197.3l196.5,49.5C678.2,482.1,679.6,480.2,681.4,478.9z M549.5,239.7
	l133.7,238.2c0.3-0.1,0.6-0.3,1-0.4c2.1-0.7,4.2-0.7,6.2-0.2l11.9-32.9L549.5,239.7z M677.4,491.3c-0.1-0.4-0.3-0.9-0.3-1.3
	l-209.3,23.2c0,1.9-0.5,3.8-1.4,5.4l132.7,88.2l81.4-110.9C679.1,494.7,678,493.1,677.4,491.3z M475.6,778.4c0.4,0.3,0.7,0.6,1,1
	l176.7-123.7c-0.3-0.6-0.6-1.2-0.8-1.8c-1-3-0.6-6,0.7-8.6l-53.7-35.7L475.6,778.4z M654.5,657.3L477.9,781c0.5,0.7,0.9,1.6,1.2,2.4
	c0.6,1.7,0.7,3.5,0.4,5.2l139.3,44.3l40.5-172.3C657.5,660,655.8,658.9,654.5,657.3z M604.5,902.5c3.1,1,5.6,3.5,6.7,6.8
	c0.2,0.5,0.3,1,0.4,1.4l180.8-18.1c0-0.8,0.1-1.6,0.2-2.4l-172.4-54.8L604.5,902.5z M567.4,1609.8l97.3,31.3l8.8-79.6
	c-2.9-0.6-5.5-2.4-7.1-5.1l-99,47.5C568,1605.9,567.9,1608,567.4,1609.8z M674.2,1996c0.2,0.7,0.4,1.5,0.5,2.2l112,0.6l-0.3-70.6
	c-2.9-0.3-5.6-1.7-7.5-4.1L673.3,1994C673.7,1994.6,674,1995.3,674.2,1996z M789.1,2097.6c2.2,0.2,4.2,1.1,5.9,2.4l90.7-92.7
	c-0.8-1-1.5-2.2-2-3.5c-0.3-0.8-0.4-1.7-0.5-2.5l-94.4-0.5L789.1,2097.6z M883.2,1999.3c0.2-1.7,0.7-3.3,1.6-4.8l-89.5-69.8
	c-1.2,1.3-2.7,2.3-4.4,2.9c-0.8,0.3-1.6,0.4-2.4,0.5l0.3,70.6L883.2,1999.3z M903.1,1473.9l-216.9,74.4c0.5,2,0.4,4-0.2,5.8
	l155.7,66.7l65.8-142.1C905.6,1477.8,904,1476.1,903.1,1473.9z M604.5,923.1c-0.8,0.3-1.6,0.4-2.4,0.5l0.6,206.8c1-0.1,2,0,2.9,0.2
	l82.1-99.6l-81-109C606,922.5,605.3,922.8,604.5,923.1z M792.9,896.1c-0.2-0.5-0.3-1-0.4-1.4l-37.6,3.8l-143.2,14.3
	c0,3.1-1.3,6.1-3.5,8.1l80.7,108.6l106.5-129.2C794.4,899.1,793.5,897.7,792.9,896.1z M688.9,1032.7l-81.3,98.6
	c1.3,0.6,2.4,1.3,3.4,2.4l103-24.5l18.3-4.4c-0.5-3.5,0.8-7,3.3-9.4L688.9,1032.7z M732.8,1106.8
	C732.8,1106.8,732.8,1106.8,732.8,1106.8l-120.4,28.6c0.5,0.7,0.9,1.5,1.2,2.4c0.5,1.4,0.6,2.9,0.5,4.3l83.3,42.3l39.4-72.2
	C735,1110.9,733.5,1109.1,732.8,1106.8z M652.4,1271c1.6,1.3,2.9,3,3.6,5.1c0.3,0.8,0.4,1.7,0.5,2.5l0.1,0l229.9,7.2
	c0.1-0.9,0.3-1.8,0.7-2.6l-189.1-96.1L652.4,1271z M671.6,1695.7c0,3.5-1.7,6.8-4.5,8.8l39.3,68.9l96.3-78c-0.5-0.8-0.9-1.6-1.2-2.5
	c-0.1-0.3-0.2-0.5-0.2-0.8L671.6,1695.7z M683.9,1557.9l120.9,123.2c1-0.8,2.1-1.5,3.4-1.9c2.2-0.8,4.4-0.7,6.5-0.1l26.1-56.3
	L685.2,1556C684.8,1556.7,684.4,1557.3,683.9,1557.9z M974.5,1686.8c-0.2-0.7-0.4-1.4-0.5-2.1l-56.1,2l-95.5,3.4
	c0,0.6-0.1,1.2-0.3,1.8l119.8,40.6l35.1-41.6C975.9,1689.8,975.1,1688.4,974.5,1686.8z M821.5,1693.8c-1.2,2.7-3.4,4.9-6.4,5.9
	c-1.2,0.4-2.4,0.6-3.6,0.6l-21.9,206.4c1.5,0.3,2.8,0.9,4.1,1.8l147-174.3L821.5,1693.8z M784,1907.1c1.2-0.4,2.4-0.6,3.6-0.6
	l21.9-206.4c-2.1-0.4-4.1-1.5-5.6-3.1l-96.5,78.2l75.6,132.4C783.3,1907.4,783.6,1907.2,784,1907.1z M803.1,1682.9l-120.6-123.6
	c-1,0.8-2.1,1.5-3.3,1.9c-1.2,0.4-2.5,0.6-3.7,0.6l-8.9,80l135.2,43.5C802.1,1684.4,802.6,1683.6,803.1,1682.9z M649.4,1289.9
	c-0.2,0.1-0.3,0.1-0.5,0.1l16.2,151.9l10.5,98.1c2.3,0,4.5,0.7,6.3,2L806,1394.3l-151.4-108.2
	C653.3,1287.8,651.5,1289.2,649.4,1289.9z M816.6,1679.8c2.4,1.2,4.4,3.4,5.3,6.2c0.2,0.7,0.4,1.4,0.5,2.1l151.6-5.3
	c0.1-0.9,0.2-1.8,0.5-2.7l-131.9-56.5L816.6,1679.8z M992.5,1690.8c-1.2,1.2-2.6,2.2-4.4,2.8c-3.4,1.2-6.9,0.5-9.6-1.4l-34.5,41
	l173.5,58.8c0.2-0.5,0.5-1,0.8-1.4l-77.3-61.3L992.5,1690.8z M1116.8,1799c-0.4-1.7-0.3-3.5,0.1-5.1l-174.2-59l-147.5,175
	c0.8,0.9,1.6,1.9,2.1,3L1116.8,1799z M781.2,1908.5l-75.4-132.1l-79.8,64.6c0.5,0.8,0.9,1.6,1.2,2.5c0.8,2.2,0.7,4.6,0.1,6.7
	l150.5,62.2C778.7,1910.9,779.8,1909.5,781.2,1908.5z M624.8,1839.4l80-64.8l-39.5-69.2c-0.3,0.2-0.7,0.3-1,0.4
	c-1.8,0.6-3.7,0.7-5.5,0.4L621,1836.9C622.5,1837.4,623.7,1838.3,624.8,1839.4z M671,1692.1c0.2,0.5,0.3,1,0.4,1.6l129.5-3.6
	c-0.1-1,0-2,0.2-3l-134.8-43.3l-4.5,41C666,1685.2,669.6,1687.9,671,1692.1z M650.8,1269.9l45.7-83.7l-82.7-42
	c-0.9,3.2-3.2,5.9-6.4,7.2l37.2,117.5C646.7,1268.5,648.9,1268.9,650.8,1269.9z M797,901.6l-106.8,129.5l46.9,63.1
	c0.7-0.5,1.5-0.9,2.4-1.2c1.8-0.6,3.6-0.7,5.3-0.4l54.4-189.9C798.4,902.4,797.7,902,797,901.6z M746.4,1113.6
	c-2.7,0.9-5.5,0.7-7.9-0.4l-39.3,72.1l189,96.1c0.4-0.7,0.9-1.3,1.4-1.8L749,1112.3C748.2,1112.8,747.3,1113.3,746.4,1113.6z
	 M887.1,1290.7c-0.3-0.9-0.5-1.9-0.5-2.8l-230-7.2c-0.1,1.3-0.5,2.6-1,3.8l151.7,108.4l82.4-98
	C888.6,1293.6,887.7,1292.3,887.1,1290.7z M683.4,1543.3c0.9,0.9,1.6,2,2.1,3.2l216.9-74.4c-0.7-2.8-0.2-5.6,1.1-8l-96-68.6
	L683.4,1543.3z M1117.6,1801.3l-0.7-0.3l-319.1,113.7c0.6,2.4,0.4,4.8-0.5,6.9l113.8,62.3l207.4-181.2
	C1118.2,1802.4,1117.9,1801.8,1117.6,1801.3z M797.8,1924.2L886,1993c1.2-1.3,2.7-2.3,4.4-2.9c3.9-1.4,8.1-0.3,10.9,2.5l8.2-7.1
	L797.8,1924.2z M784.7,2098.1c0.8-0.3,1.6-0.4,2.4-0.5l-0.4-96.8l-112-0.6c-0.1,2-0.8,4-2,5.6l108,94.7
	C781.8,2099.5,783.2,2098.7,784.7,2098.1z M672.2,1992.4l91.5-60.4l-101,56.8C666.2,1988.3,669.8,1989.7,672.2,1992.4z
	 M777.6,1921.8c-0.1-0.3-0.2-0.6-0.3-0.9c-0.8-2.2-0.7-4.6-0.1-6.7L626.6,1852c-1.2,2.4-3.3,4.3-6.1,5.3c-2.4,0.8-4.9,0.7-7.1-0.1
	L518,2062.5c1.3,0.8,2.5,2,3.3,3.4L777.6,1921.8z M505.1,2063.5c1-0.9,2.3-1.7,3.7-2.2c2.5-0.9,5.2-0.7,7.5,0.2l95.4-205.3
	c-0.7-0.4-1.3-0.8-1.8-1.4l-165,150.8L505.1,2063.5z M608.5,1853.5c-0.7-0.9-1.2-1.9-1.6-3c0-0.1-0.1-0.3-0.1-0.4l-258.7,52.6
	c0.3,3-0.7,5.8-2.5,8l97.8,93.6L608.5,1853.5z M344.2,1912.1c-1,0.8-2,1.4-3.3,1.8l38.6,137.6c3.4-0.6,6.8,0.4,9.3,2.7l53.1-48.5
	L344.2,1912.1z M377.6,2052.1l-38.5-137l32,323.9l8.8-166c-3.9-0.6-7.3-3.3-8.6-7.3C369.4,2060.2,372.3,2054.2,377.6,2052.1z
	 M347.6,1900.2c0.1,0.2,0.1,0.4,0.2,0.6l258.6-52.6c-0.3-3.3,0.8-6.5,3-8.8l-59.5-71.2l-203,130.6
	C347.2,1899.2,347.4,1899.7,347.6,1900.2z M610.9,1838c0.8-0.6,1.7-1,2.7-1.4c1.8-0.6,3.7-0.7,5.5-0.4l37.8-130.6
	c-1.8-0.7-3.3-1.9-4.5-3.4l-100.7,64.8L610.9,1838z M653.1,1688.1c1.2-1.2,2.6-2.2,4.3-2.7c0.8-0.3,1.7-0.4,2.5-0.5l4.6-41.6
	l-97.8-31.5c-0.3,0.6-0.6,1.2-1,1.7L653.1,1688.1z M566.7,1602l98.8-47.4c0-0.1-0.1-0.2-0.1-0.2c-1.9-5.7,1.1-11.9,6.7-13.8
	c0.4-0.2,0.9-0.3,1.3-0.4l-26.6-249.8c-0.7,0.1-1.5,0.1-2.2,0l-83.4,306.4C563.6,1597.8,565.6,1599.6,566.7,1602z M636.1,1275
	c1.2-2.6,3.4-4.7,6.3-5.7c0,0,0.1,0,0.1,0l-37.1-117.3c-3.9,0.8-7.8-0.7-10.2-3.6l-105,74.6L636.1,1275z M594,1146.7
	c-0.3-0.6-0.6-1.2-0.9-1.9c-0.2-0.6-0.3-1.2-0.4-1.8l-268.4,18.2c0,0.8-0.1,1.6-0.3,2.4l163.9,58.5L594,1146.7z M323.8,1157.4
	c0.2,0.6,0.3,1.2,0.4,1.8l268.4-18.2c0.1-2.5,1-4.9,2.6-6.8l-112.4-118l-160.4,138.5C323,1155.5,323.5,1156.4,323.8,1157.4z
	 M596.7,1132.8c0.9-0.8,2-1.4,3.2-1.8c0.3-0.1,0.5-0.2,0.8-0.2l-0.6-207.1c-2.5-0.2-4.8-1.3-6.5-3l-109.1,94.2L596.7,1132.8z
	 M593.9,904.6c1-0.9,2.3-1.7,3.6-2.1c1.7-0.6,3.3-0.7,5-0.5l15.8-67.2L479,790.6c-0.4,1-0.8,1.9-1.5,2.8L593.9,904.6z M473.9,777.3
	l123.9-168.9l-132.6-88.2c-1.2,1.5-2.9,2.7-4.8,3.4c-0.7,0.3-1.5,0.4-2.2,0.5l11,252C470.9,776.1,472.5,776.5,473.9,777.3z
	 M467.2,509.8c0.2,0.5,0.3,0.9,0.4,1.4L676.8,488c0-0.6,0-1.2,0.1-1.8l-196.6-49.5l-19.6,66.5C463.7,504.2,466.1,506.6,467.2,509.8z
	 M537.1,236.8c-1.6-0.7-3.1-1.7-4.3-3.1L314.2,385.8c0.7,0.9,1.3,2,1.7,3.2c0.5,1.4,0.6,2.9,0.5,4.3L479,434.2L537.1,236.8z
	 M309.4,382.3c1.3,0.5,2.4,1.2,3.4,2.1l218.9-152.3c-0.3-0.6-0.6-1.2-0.8-1.8c-0.5-1.6-0.7-3.2-0.5-4.8L387.5,194L309.4,382.3z
	 M530.8,223.5c0.5-1.7,1.5-3.3,2.8-4.5L436.8,96.6c-0.5,0.2-0.9,0.4-1.4,0.6c-2.6,0.9-5.2,0.7-7.6-0.3l-39.5,95.2L530.8,223.5z
	 M439,95.1c-0.2,0.2-0.4,0.3-0.5,0.4l96.7,122.1c0.7-0.5,1.6-0.9,2.5-1.2c2.3-0.8,4.7-0.7,6.9,0l12.7-28.9L439,95.1z M546.3,217.3
	c2.2,1.3,4,3.3,4.9,6c0.9,2.6,0.7,5.2-0.2,7.5l183.6,95.3L558.9,188.8L546.3,217.3z M741.1,342.5L704.4,444l30,40.2
	c0.7-0.4,1.4-0.8,2.2-1.1c0.9-0.3,1.8-0.5,2.7-0.5l3.3-139.8C742.1,342.7,741.6,342.6,741.1,342.5z M732.8,485.4l-29.2-39.1
	L692.2,478c2.5,1.2,4.6,3.4,5.6,6.3c0.4,1.2,0.6,2.4,0.6,3.6l31.2,3.4C730,489,731.1,487,732.8,485.4z M682,497.1l-81.3,110.8
	l53.6,35.7c1.2-1.6,2.9-2.8,4.9-3.5c1.4-0.5,2.8-0.6,4.1-0.6L685,498.3C683.9,498.1,682.9,497.6,682,497.1z M666.2,660.6
	c-1.7,0.6-3.4,0.7-5,0.5l-40.5,172.4l172.5,54.9c0.8-1.8,2-3.4,3.6-4.6L667.3,660.2C667,660.4,666.6,660.5,666.2,660.6z
	 M804.6,903.4c-1.2,0.2-2.4,0.1-3.5-0.1l-54.4,189.8c1.1,0.4,2.1,1,2.9,1.7l80.3-84.4L804.6,903.4z M751.1,1096.2
	c0.9,1,1.6,2.2,2.1,3.6c1.4,4.1,0.2,8.4-2.6,11.2l140.7,167.2c0.6-0.4,1.2-0.7,1.8-1l-62.5-264.5L751.1,1096.2z M891.2,1296.1
	l-82.3,97.9l95.8,68.5c1.2-1.4,2.8-2.6,4.7-3.2c0.5-0.2,1-0.3,1.6-0.4L897.3,1298C895.1,1298,892.9,1297.3,891.2,1296.1z
	 M917.3,1479.4l64.4,191.8l38.7-35.9L918,1479.1C917.7,1479.2,917.5,1479.3,917.3,1479.4z M983.2,1672.6c5-0.7,10,2.2,11.7,7.3
	c1.1,3.3,0.6,6.7-1.2,9.4l125.8,99.7c0.3-0.3,0.6-0.6,1-0.9l-99-151.1L983.2,1672.6z M1124.5,1807c-1.8-0.5-3.4-1.4-4.7-2.7
	L913,1985l159.2,87.2c1.3-1.9,3.1-3.5,5.5-4.3c1.4-0.5,2.8-0.7,4.2-0.6L1124.5,1807z M1064.3,2070.1l-152.9-83.7l-8.7,7.6
	c0.6,0.8,1.1,1.8,1.4,2.8c0.8,2.3,0.7,4.6,0.1,6.7L1064.3,2070.1z M653.8,2002.8c-1.2-3.7-0.3-7.5,2-10.2l-115.2,64.8L653.8,2002.8z
	 M501.6,2070.2c0.3-1.9,1-3.7,2.2-5.2l-60.5-57.9l-53.2,48.6c0.7,0.9,1.2,1.9,1.6,3c0.4,1.1,0.5,2.2,0.6,3.3L501.6,2070.2z
	 M109.1,2272.9c0.5,0.2,1,0.4,1.5,0.6l145.2-238.2l-62.3-118c-0.2,0.1-0.4,0.2-0.6,0.2c-1.8,0.6-3.7,0.7-5.4,0.4L109.1,2272.9z
	 M340.1,1893.1c2.3,0.6,4.3,2,5.8,3.9l202.7-130.4l-143.9-172.3c-0.8,0.6-1.7,1-2.7,1.4c-1.5,0.5-3,0.7-4.5,0.5L340.1,1893.1z
	 M409.1,1587.8c-0.1,0.3-0.1,0.5-0.2,0.8l242.5,101.9c0.2-0.3,0.3-0.6,0.5-0.9l-87.6-74.8c-1.1,1-2.3,1.7-3.7,2.2
	c-5.6,1.9-11.7-1.1-13.6-6.8c-0.4-1.3-0.6-2.6-0.6-3.9L409.1,1587.8z M554.6,1596.2c1.7-0.4,3.3-0.4,4.9,0l83.4-306.2
	c-3.2-1-5.9-3.5-7.1-6.9c-0.5-1.6-0.7-3.1-0.5-4.7l-162.7-33.6c-1,3.2-3.3,5.9-6.6,7.1L554.6,1596.2z M458.7,1231.3
	c4.3-1.5,8.9,0,11.6,3.3l15.6-11.1l-160.5-57.3l127.7,69.4C454.5,1233.7,456.4,1232.1,458.7,1231.3z M318.6,1151.2
	c0.9,0.5,1.8,1.1,2.6,1.9l160.4-138.4l-70.4-74c-0.9,0.8-2,1.4-3.2,1.8c-2.2,0.8-4.5,0.7-6.5,0.1L318.6,1151.2z M409.7,922.7
	c2.2,1.3,4,3.3,4.9,6c0.2,0.5,0.3,1,0.4,1.4l175.3-17.3c0-2.5,0.8-4.9,2.3-6.8L476.2,794.8c-1.1,1-2.4,1.9-3.9,2.4
	c-2.3,0.8-4.8,0.7-6.9,0L409.7,922.7z M449.1,505.9c1.2-1.3,2.7-2.3,4.5-2.9c1.8-0.6,3.6-0.7,5.4-0.4l19.5-66.4l-162.3-40.9
	c-0.3,1.1-0.7,2.1-1.3,3L449.1,505.9z M286.9,164.2c0.3,0.5,0.5,1.1,0.7,1.7c0.5,1.4,0.6,2.9,0.5,4.3l98.1,21.5L426,96.1
	c-1.3-0.9-2.4-2-3.3-3.4L286.9,164.2z M442.4,89.5c-0.4,1.5-1,2.9-2,4.1l117.7,92l32-72.7c-2.2-1.3-4-3.3-4.9-6
	c-0.4-1.2-0.6-2.4-0.6-3.5L442.4,89.5z M600.4,113c-0.5,0.3-1,0.5-1.6,0.7c-2.3,0.8-4.7,0.7-6.9,0l-32.2,73.2l176.2,137.7
	c0.4-0.4,0.8-0.7,1.2-1.1L600.4,113z M734.4,502.7c-2.1-1.3-3.7-3.3-4.5-5.8c-0.4-1.2-0.6-2.4-0.6-3.6l-31.2-3.4
	c-0.7,3.7-3.3,6.9-7.1,8.2c-1.4,0.5-2.8,0.6-4.1,0.6l-21.6,141.2c0.4,0.1,0.9,0.2,1.3,0.4L734.4,502.7z M671.6,656.5
	c-0.7,1-1.6,1.9-2.6,2.7l129.5,223.6c0.4-0.2,0.7-0.3,1.1-0.4c5.5-1.9,11.4,1,13.5,6.4l171.1-48.5c-0.4-2.2-0.1-4.4,0.8-6.4
	L671.6,656.5z M988.2,846.8L832.1,1011l61.8,261.5l97.6-423.9C990.3,848.2,989.2,847.6,988.2,846.8z M922.4,1474.6
	c-0.7,1.3-1.6,2.4-2.8,3.4l102.2,156l87-80.9L922.4,1474.6z M1109.9,1554.9l-86.9,80.7l99.2,151.3c0.5-0.3,1.1-0.5,1.6-0.7
	c0.6-0.2,1.2-0.3,1.7-0.4L1109.9,1554.9z M1112,1557l15.5,228.6c4.4,0.1,8.4,2.9,9.9,7.4c1.5,4.5-0.1,9.4-3.7,12.2l142.8,53.3
	c0.8-1.7,2-3.1,3.5-4.2L1112,1557z"/>
<g id="Слой_2">
	<ellipse class="st1" cx="1286.4" cy="1863.3" rx="10.8" ry="10.9"/>
	<ellipse class="st1" cx="1127.1" cy="1796.3" rx="10.8" ry="10.9"/>
	<ellipse class="st1" cx="984.6" cy="1683.3" rx="10.8" ry="10.9"/>
	<ellipse class="st1" cx="1111" cy="1552.3" rx="10.8" ry="10.9"/>
	<ellipse class="st1" cx="1081" cy="2078.3" rx="10.8" ry="10.9"/>
	<ellipse class="st1" cx="894" cy="2000.3" rx="10.8" ry="10.9"/>
	<ellipse class="st1" cx="787.4" cy="1917.3" rx="10.8" ry="10.9"/>
	<ellipse class="st1" cx="811.7" cy="1689.8" rx="10.8" ry="10.9"/>
	<ellipse class="st1" cx="913.2" cy="1469.3" rx="10.8" ry="10.9"/>
	<ellipse class="st1" cx="897.2" cy="1286.8" rx="10.8" ry="10.9"/>
	<ellipse class="st1" cx="803" cy="892.8" rx="10.8" ry="10.9"/>
	<ellipse class="st1" cx="995" cy="838.5" rx="10.8" ry="10.9"/>
	<ellipse class="st1" cx="663" cy="650.3" rx="10.8" ry="10.9"/>
	<ellipse class="st1" cx="740" cy="493.5" rx="10.8" ry="10.9"/>
	<ellipse class="st1" cx="687.9" cy="487.8" rx="11.2" ry="11.3"/>
	<ellipse class="st1" cx="743.9" cy="332" rx="10.8" ry="10.9"/>
	<ellipse class="st1" cx="541" cy="227" rx="10.8" ry="10.9"/>
	<ellipse class="st1" cx="595.4" cy="103.5" rx="10.8" ry="10.9"/>
	<ellipse class="st1" cx="431.7" cy="87" rx="10.8" ry="10.9"/>
	<ellipse class="st1" cx="457.2" cy="513.3" rx="10.8" ry="10.9"/>
	<ellipse class="st1" cx="468.8" cy="786.8" rx="10.8" ry="10.9"/>
	<ellipse class="st1" cx="600.9" cy="913.2" rx="10.8" ry="10.9"/>
	<ellipse class="st1" cx="404.5" cy="932" rx="10.8" ry="10.9"/>
	<ellipse class="st1" cx="603.4" cy="1141.2" rx="10.8" ry="10.9"/>
	<ellipse class="st1" cx="462.4" cy="1241.8" rx="10.8" ry="10.9"/>
	<ellipse class="st1" cx="556.9" cy="1606.8" rx="10.8" ry="10.9"/>
	<ellipse class="st1" cx="398.4" cy="1585" rx="10.9" ry="11"/>
	<ellipse class="st1" cx="617.2" cy="1847" rx="10.8" ry="10.9"/>
	<ellipse class="st1" cx="337.4" cy="1904" rx="10.8" ry="10.9"/>
	<ellipse class="st1" cx="512.3" cy="2071.5" rx="10.8" ry="10.9"/>
	<ellipse class="st1" cx="381.5" cy="2062.3" rx="10.8" ry="10.9"/>
	<ellipse class="st1" cx="371.3" cy="2252.5" rx="10.8" ry="10.9"/>
	<ellipse class="st1" cx="105.8" cy="2283.2" rx="10.8" ry="10.9"/>
	<ellipse class="st1" cx="189.3" cy="1907.3" rx="10.8" ry="10.9"/>
	<ellipse class="st1" cx="313.7" cy="1160.8" rx="10.8" ry="10.9"/>
	<ellipse class="st1" cx="788.2" cy="2108.5" rx="10.8" ry="10.9"/>
	<ellipse class="st1" cx="664" cy="1999.3" rx="10.8" ry="10.9"/>
	<ellipse class="st1" cx="660.8" cy="1696" rx="10.8" ry="10.9"/>
	<ellipse class="st1" cx="676.1" cy="1551" rx="10.8" ry="10.9"/>
	<ellipse class="st1" cx="645.9" cy="1279.8" rx="10.8" ry="10.9"/>
	<ellipse class="st1" cx="742.9" cy="1103.3" rx="10.8" ry="10.9"/>
	<ellipse class="st1" cx="277.6" cy="169.4" rx="10.8" ry="10.9"/>
	<ellipse class="st1" cx="305.8" cy="392.4" rx="10.8" ry="10.9"/>
</g>
</svg>
