<?xml version="1.0" encoding="utf-8"?>
<!-- Generator: Adobe Illustrator 22.0.1, SVG Export Plug-In . SVG Version: 6.00 Build 0)  -->
<svg version="1.1" id="Режим_изоляции"
	 xmlns="http://www.w3.org/2000/svg" xmlns:xlink="http://www.w3.org/1999/xlink" x="0px" y="0px" width="769.1px"
	 height="2122.1px" viewBox="0 0 769.1 2122.1" style="enable-background:new 0 0 769.1 2122.1;" xml:space="preserve">
<style type="text/css">
	.st0{fill:#F7D746;}
	.st1{fill:#7EB748;}
</style>
<path class="st0" d="M698.4,315.6c-5.7-1.9-11.9,1.1-13.8,6.8c-0.7,2.1-0.7,4.3-0.2,6.3l-145.9,53.9c-0.3-0.1-0.5-0.2-0.8-0.3
	c-1.4-0.5-2.9-0.7-4.3-0.6l-43.1-260.4c3.4-0.9,6.3-3.4,7.5-7c1.9-5.7-1.1-11.9-6.8-13.8c-5.7-1.9-11.9,1.1-13.8,6.8
	c-0.8,2.3-0.7,4.6-0.1,6.7L308,183.7c-1.3-2.4-3.4-4.3-6.1-5.3c-3.7-1.3-7.6-0.4-10.4,1.9l-91.6-92.7c0.8-1,1.5-2.2,2-3.5
	c1.9-5.7-1.1-11.9-6.8-13.8c-5.7-1.9-11.9,1.1-13.8,6.8c-1.2,3.5-0.5,7.1,1.5,9.8L73.6,181.8c-1.1-1.1-2.5-1.9-4-2.4
	c-5.1-1.7-10.6,0.5-13.1,5.1L-77,120.8c1.8-5.7-1.2-11.8-6.8-13.7c-5.7-1.9-11.9,1.1-13.8,6.8c-0.3,1-0.5,2-0.6,3l-110.6,8.2
	c-0.6-3.8-3.3-7.2-7.2-8.5c-1-0.3-2.1-0.5-3.1-0.6l-9-168.3c3.9-0.6,7.4-3.3,8.7-7.3c1.9-5.7-1.1-11.9-6.8-13.8
	c-5.7-1.9-11.9,1.1-13.8,6.8c-0.1,0.4-0.2,0.8-0.3,1.3l-246.9-28.6c0.1-4.6-2.8-9-7.4-10.5c-5.7-1.9-11.9,1.1-13.8,6.8
	c-1.9,5.7,1.1,11.9,6.8,13.8c1.6,0.6,3.3,0.7,4.9,0.5l79.3,355.1c-2.9,1.1-5.3,3.5-6.4,6.6c-1.9,5.7,1.1,11.9,6.8,13.8
	c5.7,1.9,11.9-1.1,13.8-6.8c0.2-0.6,0.3-1.1,0.4-1.7l128,2.3c0.2,4.3,3,8.3,7.4,9.7c1.4,0.5,2.9,0.7,4.3,0.6l58,297
	c-3.3,1-6.1,3.4-7.2,6.9c-1.9,5.7,1.1,11.9,6.8,13.8c5.7,1.9,11.9-1.1,13.8-6.8c0.4-1.3,0.6-2.6,0.6-3.9l138.7-18.5
	c0.8,3.6,3.4,6.6,7.1,7.9l-1-0.3l-89.7,344.4c-5.2-0.8-10.3,2.1-12.1,7.2c-0.9,2.6-0.7,5.4,0.3,7.7l-131.1,70.5
	c-1.3-1.9-3.2-3.5-5.6-4.3c-5.7-1.9-11.9,1.1-13.8,6.8c-1.9,5.7,1.1,11.9,6.8,13.8c2.2,0.8,4.5,0.7,6.6,0.1l83.6,208.6
	c-2.4,1.2-4.4,3.4-5.3,6.2c-1.9,5.7,1.1,11.9,6.8,13.8c2.4,0.8,4.8,0.7,7,0l56.3,125.6c-2.2,1.3-4.1,3.3-5,6
	c-1.9,5.7,1.1,11.9,6.8,13.8c0.6,0.2,1.2,0.3,1.8,0.4l-11.1,252c-4.2,0.3-8.1,3.1-9.5,7.4c-1.1,3.2-0.6,6.6,1.1,9.3L-288,1789.3
	c-1.2-1.3-2.7-2.3-4.5-2.9c-5.7-1.9-11.9,1.1-13.8,6.8c-1.9,5.7,1.1,11.9,6.8,13.8c0,0,0.1,0,0.1,0l-25.8,201.9
	c-4.3,0.2-8.2,3-9.7,7.4c-1.9,5.7,1.1,11.9,6.8,13.8c4.4,1.5,9.1,0,11.9-3.4l137.5,71.6c-0.1,0.1-0.1,0.3-0.2,0.4
	c-1.9,5.7,1.1,11.9,6.8,13.8c5.7,1.9,11.9-1.1,13.8-6.8c0.5-1.3,0.6-2.7,0.6-4.1l143.7-13.8c0.7,3.7,3.3,7,7.2,8.3
	c5.7,1.9,11.9-1.1,13.8-6.8c1.5-4.5,0-9.2-3.5-12l138.1-210.5c0.5,0.3,1,0.5,1.6,0.7c5.7,1.9,11.9-1.1,13.8-6.8
	c1.9-5.7-1.1-11.9-6.8-13.8c-0.9-0.3-1.8-0.5-2.7-0.5l-3.3-139.8c4-0.5,7.6-3.2,9-7.3c1.9-5.7-1.1-11.9-6.8-13.8
	c-2.5-0.9-5.1-0.7-7.4,0.2l-68.5-137.5c2.1-1.3,3.7-3.3,4.6-5.8c0.9-2.7,0.7-5.5-0.4-7.9L391.5,1357c1.3,1.9,3.1,3.4,5.5,4.1
	c5.7,1.9,11.9-1.1,13.8-6.8c1.9-5.7-1.1-11.9-6.8-13.8c-1.7-0.6-3.4-0.7-5-0.5l-99.5-427.5c5.4,1.2,10.9-1.8,12.7-7.1
	c1.9-5.7-1.1-11.9-6.8-13.8c-0.5-0.2-1-0.3-1.6-0.4l13.9-160.8c4.5,0,8.7-2.9,10.2-7.4c0.8-2.3,0.7-4.6,0.1-6.7L516.4,638l-0.2,2.8
	l2-3.5l1.1-0.5l-0.6-0.5l171.7-300.4c0.3,0.1,0.7,0.3,1,0.4c5.7,1.9,11.9-1.1,13.8-6.8C707.2,323.7,704.1,317.6,698.4,315.6z
	 M390.3,1347l-172.9-48.5c1-5.2-2-10.5-7.2-12.3c0,0,0,0,0,0l25.2-105.7l156.8,163.2C391.4,1344.7,390.7,1345.7,390.3,1347z
	 M-321.1,2009.5c-0.7-0.2-1.4-0.4-2.1-0.5l11.6-90.7l14.2-110.9c1.1,0.1,2.1,0.1,3.1,0l78.9,188.2l-98.7,21.4
	C-315,2013.6-317.5,2010.7-321.1,2009.5z M-185.5,1257c0-2.6-0.9-5.2-2.6-7.2l71.2-74.1l110.4,94.3c-0.6,0.8-1.1,1.8-1.4,2.8
	c-0.2,0.5-0.3,1-0.4,1.4L-185.5,1257z M-127.6,951c0.5-1.6,0.7-3.1,0.5-4.7l160.9-32.9l-145.3,51.4l-16.9-11.9
	C-128.1,952.3-127.9,951.7-127.6,951z M-194.5,596.2l145.6-172.5l102,64.9c-0.2,0.5-0.5,1-0.6,1.5c-0.8,2.3-0.7,4.6-0.1,6.7
	l-245.1,101.9C-193.1,597.8-193.7,596.9-194.5,596.2z M-407.7,272.8l62.4-116.9l74.6,121.1c-1.6,1.3-2.9,3-3.6,5.1
	c-0.2,0.7-0.4,1.4-0.5,2l-127.9-2.3C-402.7,278.2-404.6,274.8-407.7,272.8z M-344.2,153.8l110.3-206.8c0.2,0.1,0.5,0.2,0.7,0.3
	c0.5,0.2,0.9,0.3,1.4,0.4l-32.6,326.9c-1.6,0.1-3.2,0.5-4.7,1.2L-344.2,153.8z M-487.8-90.6c0.1-0.4,0.2-0.8,0.3-1.3l246.9,28.6
	c-0.1,3.7,1.8,7.3,4.9,9.3l-109.8,205.7L-491.6-85.4C-489.9-86.6-488.5-88.4-487.8-90.6z M320.1,709.1c-2.1-0.5-4.3-0.4-6.2,0.3
	l-66.5-142L380.6,511c1.1,2.1,2.9,3.8,5.1,4.8L320.1,709.1z M136.4,1853.7c-0.9,2.6-0.7,5.2,0.2,7.5L-49,1956.6
	c-0.5-0.8-1.1-1.5-1.8-2.2L105.5,1747l36.6,100.3C139.5,1848.6,137.4,1850.8,136.4,1853.7z M83.7,1710.3l-137.4,242.2
	c-0.3-0.1-0.6-0.3-1-0.4c-1.9-0.6-3.8-0.7-5.6-0.4l-58.7-197.3L79.6,1705C80.4,1707.1,81.8,1709,83.7,1710.3z M-49.7,1949.5
	l135.1-238.2c0.3,0.1,0.6,0.3,1,0.4c2.1,0.7,4.3,0.7,6.3,0.2l12,32.9L-49.7,1949.5z M79.6,1697.9c-0.1,0.4-0.3,0.9-0.3,1.3
	l-211.5-23.2c0-1.9-0.5-3.8-1.4-5.4l134.1-88.2l82.2,110.9C81.3,1694.5,80.2,1696,79.6,1697.9z M-124.4,1410.7
	c0.4-0.3,0.7-0.6,1.1-1l178.6,123.7c-0.3,0.6-0.6,1.2-0.8,1.8c-1,3-0.7,6,0.7,8.6l-54.3,35.7L-124.4,1410.7z M56.5,1531.8
	L-122,1408.2c0.5-0.7,0.9-1.6,1.2-2.4c0.6-1.7,0.7-3.5,0.4-5.2l140.8-44.3l40.9,172.3C59.4,1529.2,57.8,1530.3,56.5,1531.8z
	 M5.9,1286.6c3.1-1,5.7-3.5,6.8-6.8c0.2-0.5,0.3-1,0.4-1.4l182.7,18.1c0,0.8,0.1,1.6,0.2,2.4l-174.2,54.8L5.9,1286.6z M-31.6,579.3
	L66.8,548l8.9,79.6c-2.9,0.6-5.6,2.4-7.2,5.1l-100-47.5C-31,583.2-31,581.2-31.6,579.3z M76.4,193.1c0.2-0.7,0.4-1.5,0.5-2.2
	l113.2-0.6l-0.3,70.6c-3,0.3-5.7,1.7-7.5,4.1L75.5,195.1C75.8,194.5,76.2,193.8,76.4,193.1z M192.5,91.5c2.2-0.2,4.3-1.1,5.9-2.4
	l91.6,92.7c-0.8,1-1.5,2.2-2,3.5c-0.3,0.8-0.5,1.7-0.5,2.5l-95.4,0.5L192.5,91.5z M287.6,189.8c0.2,1.7,0.7,3.3,1.6,4.8l-90.5,69.8
	c-1.2-1.3-2.7-2.3-4.5-2.9c-0.8-0.3-1.6-0.4-2.5-0.5l0.3-70.6L287.6,189.8z M307.7,715.2L88.4,640.8c0.5-2,0.4-4-0.2-5.8l157.4-66.7
	l66.5,142.1C310.2,711.4,308.6,713.1,307.7,715.2z M5.9,1266c-0.8-0.3-1.6-0.4-2.5-0.5l0.6-206.8c1,0.1,2,0,2.9-0.2l83,99.6
	l-81.9,109C7.4,1266.7,6.7,1266.3,5.9,1266z M196.4,1293c-0.2,0.5-0.3,1-0.4,1.4l-38-3.8l-144.7-14.3c0-3.1-1.3-6.1-3.6-8.1
	l81.6-108.6L199,1288.9C197.8,1290,196.9,1291.4,196.4,1293z M91.2,1156.5l-82.2-98.6c1.3-0.6,2.5-1.3,3.5-2.4l104,24.5l18.5,4.4
	c-0.5,3.5,0.8,7,3.3,9.4L91.2,1156.5z M135.5,1082.4C135.5,1082.4,135.5,1082.4,135.5,1082.4l-121.6-28.6c0.5-0.7,0.9-1.5,1.2-2.4
	c0.5-1.4,0.7-2.9,0.5-4.3l84.2-42.3l39.8,72.2C137.8,1078.2,136.3,1080.1,135.5,1082.4z M54.4,918.2c1.7-1.3,3-3,3.7-5.1
	c0.3-0.8,0.4-1.7,0.5-2.5l0.1,0l232.4-7.2c0.1,0.9,0.3,1.8,0.7,2.6l-191.1,96.1L54.4,918.2z M73.7,493.5c0-3.5-1.7-6.8-4.6-8.8
	l39.7-68.9l97.3,78c-0.5,0.8-0.9,1.6-1.2,2.5c-0.1,0.3-0.2,0.5-0.2,0.8L73.7,493.5z M86.2,631.3l122.2-123.2c1,0.8,2.1,1.5,3.4,1.9
	c2.2,0.8,4.5,0.7,6.6,0.1l26.3,56.3L87.4,633.1C87.1,632.5,86.7,631.9,86.2,631.3z M379.9,502.3c-0.2,0.7-0.4,1.4-0.5,2.1l-56.7-2
	l-96.5-3.4c0-0.6-0.1-1.2-0.3-1.8L347,456.6l35.4,41.6C381.3,499.3,380.4,500.7,379.9,502.3z M225.2,495.3c-1.2-2.7-3.4-4.9-6.4-5.9
	c-1.2-0.4-2.4-0.6-3.7-0.6L193,282.4c1.5-0.3,2.9-0.9,4.1-1.8L345.6,455L225.2,495.3z M187.3,282.1c1.2,0.4,2.4,0.6,3.7,0.6
	l22.2,206.4c-2.2,0.4-4.1,1.5-5.7,3.1L109.9,414l76.4-132.4C186.6,281.8,187,281.9,187.3,282.1z M206.6,506.2L84.7,629.9
	c-1-0.8-2.1-1.5-3.4-1.9c-1.2-0.4-2.5-0.6-3.7-0.6l-9-80l136.6-43.5C205.6,504.8,206.1,505.5,206.6,506.2z M51.3,899.3
	c-0.2-0.1-0.3-0.1-0.5-0.1l16.3-151.9l10.6-98.1c2.3,0,4.5-0.7,6.4-2l125.4,147.7l-153,108.2C55.2,901.4,53.4,900,51.3,899.3z
	 M220.2,509.4c2.4-1.2,4.4-3.4,5.4-6.2c0.2-0.7,0.4-1.4,0.5-2.1l153.2,5.3c0.1,0.9,0.2,1.8,0.5,2.7l-133.3,56.5L220.2,509.4z
	 M398.1,498.3c-1.2-1.2-2.7-2.2-4.4-2.8c-3.4-1.2-7-0.5-9.7,1.4l-34.9-41l175.3-58.8c0.2,0.5,0.5,1,0.8,1.4L447,459.9L398.1,498.3z
	 M523.6,390.2c-0.4,1.7-0.4,3.5,0.1,5.1l-176.1,59l-149-175c0.8-0.9,1.6-1.9,2.1-3L523.6,390.2z M184.5,280.6l-76.2,132.1
	l-80.6-64.6c0.5-0.8,0.9-1.6,1.2-2.5c0.8-2.2,0.7-4.6,0.1-6.7l152.1-62.2C182,278.3,183.1,279.6,184.5,280.6z M26.5,349.7l80.9,64.8
	l-39.9,69.2c-0.3-0.2-0.7-0.3-1-0.4c-1.9-0.6-3.8-0.7-5.6-0.4L22.6,352.3C24.1,351.7,25.4,350.9,26.5,349.7z M73.2,497
	c0.2-0.5,0.3-1,0.4-1.6l130.9,3.6c-0.1,1,0,2,0.2,3L68.5,545.4l-4.6-41C68,504,71.7,501.2,73.2,497z M52.7,919.3l46.2,83.7l-83.6,42
	c-0.9-3.2-3.2-5.9-6.5-7.2l37.6-117.5C48.5,920.6,50.7,920.2,52.7,919.3z M200.5,1287.6L92.6,1158.1L140,1095
	c0.7,0.5,1.5,0.9,2.4,1.2c1.8,0.6,3.6,0.7,5.4,0.4l55,189.9C201.9,1286.7,201.2,1287.1,200.5,1287.6z M149.3,1075.5
	c-2.7-0.9-5.6-0.7-8,0.4l-39.8-72.1l191-96.1c0.4,0.7,0.9,1.3,1.4,1.8l-142.2,167.2C151.1,1076.3,150.3,1075.9,149.3,1075.5z
	 M291.6,898.5c-0.3,0.9-0.5,1.9-0.5,2.8l-232.4,7.2c-0.1-1.3-0.5-2.6-1.1-3.8l153.3-108.4l83.3,98
	C293,895.5,292.1,896.9,291.6,898.5z M85.6,645.9c0.9-0.9,1.6-2,2.2-3.2L307,717.1c-0.7,2.8-0.2,5.6,1.2,8l-97,68.6L85.6,645.9z
	 M524.5,387.9l-0.7,0.3L201.3,274.4c0.6-2.4,0.4-4.8-0.5-6.9l115-62.3l209.6,181.2C525,386.8,524.7,387.3,524.5,387.9z M201.3,264.9
	l89.1-68.8c1.2,1.3,2.7,2.3,4.5,2.9c4,1.4,8.2,0.3,11-2.5l8.3,7.1L201.3,264.9z M188,91c0.8,0.3,1.6,0.4,2.5,0.5l-0.4,96.8
	l-113.2,0.6c-0.1-2-0.9-4-2-5.6L184,88.6C185.1,89.6,186.5,90.5,188,91z M74.3,196.8l92.4,60.4L64.6,200.4
	C68.3,200.9,71.9,199.5,74.3,196.8z M180.9,267.4c-0.1,0.3-0.2,0.6-0.4,0.9c-0.8,2.2-0.7,4.6-0.1,6.7L28.3,337.2
	c-1.2-2.4-3.4-4.3-6.1-5.3c-2.4-0.8-4.9-0.7-7.2,0.1l-96.4-205.3c1.3-0.8,2.5-2,3.4-3.4L180.9,267.4z M-94.5,125.6
	c1.1,0.9,2.3,1.7,3.7,2.2c2.6,0.9,5.2,0.7,7.5-0.2l96.4,205.3c-0.7,0.4-1.3,0.8-1.9,1.4l-166.8-150.8L-94.5,125.6z M9.9,335.7
	c-0.7,0.9-1.2,1.9-1.6,3c0,0.1-0.1,0.3-0.1,0.4l-261.4-52.6c0.3-3-0.7-5.8-2.6-8l98.8-93.6L9.9,335.7z M-257.2,277
	c-1-0.8-2.1-1.4-3.3-1.8l39.1-137.6c3.4,0.6,6.9-0.4,9.3-2.7l53.6,48.5L-257.2,277z M-223.4,137.1l-38.9,137L-230-49.8l8.9,166
	c-3.9,0.6-7.4,3.3-8.7,7.3C-231.6,129-228.8,135-223.4,137.1z M-253.7,289c0.1-0.2,0.1-0.4,0.2-0.6L7.8,341
	c-0.4,3.3,0.8,6.5,3.1,8.8L-49.2,421l-205.1-130.6C-254.1,290-253.9,289.5-253.7,289z M12.4,351.1c0.8,0.6,1.7,1,2.7,1.4
	c1.9,0.6,3.8,0.7,5.6,0.4l38.2,130.6c-1.8,0.7-3.4,1.9-4.6,3.4l-101.8-64.8L12.4,351.1z M55.1,501.1c1.2,1.2,2.6,2.2,4.3,2.7
	c0.8,0.3,1.7,0.4,2.5,0.5l4.7,41.6l-98.9,31.5c-0.3-0.6-0.7-1.2-1.1-1.7L55.1,501.1z M-32.2,587.1l99.9,47.4c0,0.1-0.1,0.2-0.1,0.2
	c-1.9,5.7,1.1,11.9,6.8,13.8c0.4,0.2,0.9,0.3,1.3,0.4L48.8,898.7c-0.7-0.1-1.5-0.1-2.2,0l-84.3-306.4
	C-35.4,591.3-33.4,589.5-32.2,587.1z M37.9,914.1c1.2,2.6,3.4,4.7,6.4,5.7c0,0,0.1,0,0.1,0L6.8,1037.2c-3.9-0.8-7.8,0.7-10.3,3.6
	l-106.1-74.6L37.9,914.1z M-4.7,1042.5c-0.3,0.6-0.6,1.2-0.9,1.9c-0.2,0.6-0.3,1.2-0.4,1.8l-271.2-18.2c0-0.8-0.1-1.6-0.3-2.4
	l165.6-58.5L-4.7,1042.5z M-277.7,1031.8c0.2-0.6,0.3-1.2,0.4-1.8l271.2,18.2c0.1,2.5,1,4.9,2.6,6.8L-117,1173l-162.1-138.5
	C-278.6,1033.7-278.1,1032.8-277.7,1031.8z M-2,1056.4c1,0.8,2.1,1.4,3.3,1.8c0.3,0.1,0.5,0.2,0.8,0.2l-0.6,207.1
	c-2.5,0.2-4.8,1.3-6.6,3l-110.3-94.2L-2,1056.4z M-4.8,1284.5c1,0.9,2.3,1.7,3.7,2.1c1.7,0.6,3.4,0.7,5,0.5l16,67.2l-140.8,44.3
	c-0.4-1-0.9-1.9-1.5-2.8L-4.8,1284.5z M-126,1411.8l125.3,168.9l-134,88.2c-1.2-1.5-2.9-2.7-4.9-3.4c-0.7-0.3-1.5-0.4-2.2-0.5
	l11.1-252C-129.1,1413.1-127.5,1412.6-126,1411.8z M-132.9,1679.4c0.2-0.5,0.3-0.9,0.4-1.4L79,1701.2c0,0.6,0,1.2,0.1,1.8
	l-198.7,49.5l-19.8-66.5C-136.4,1684.9-133.9,1682.6-132.9,1679.4z M-62.2,1952.3c-1.7,0.7-3.1,1.7-4.3,3.1l-221-152.1
	c0.7-0.9,1.3-2,1.7-3.2c0.5-1.4,0.7-2.9,0.6-4.3l164.3-40.9L-62.2,1952.3z M-292.3,1806.9c1.3-0.5,2.5-1.2,3.5-2.1l221.2,152.3
	c-0.3,0.6-0.6,1.2-0.8,1.8c-0.5,1.6-0.7,3.2-0.5,4.8l-144.4,31.4L-292.3,1806.9z M-68.5,1965.7c0.5,1.7,1.5,3.3,2.8,4.5l-97.9,122.3
	c-0.5-0.2-0.9-0.4-1.4-0.6c-2.6-0.9-5.3-0.7-7.7,0.3l-39.9-95.2L-68.5,1965.7z M-161.3,2094c-0.2-0.2-0.4-0.3-0.5-0.4l97.7-122.1
	c0.8,0.5,1.6,0.9,2.5,1.2c2.4,0.8,4.8,0.7,7,0l12.9,28.9L-161.3,2094z M-52.9,1971.9c2.3-1.3,4.1-3.3,5-6c0.9-2.6,0.7-5.2-0.2-7.5
	l185.6-95.3l-177.7,137.3L-52.9,1971.9z M143.9,1846.7l-37-101.5l30.3-40.2c0.7,0.4,1.4,0.8,2.2,1.1c0.9,0.3,1.8,0.5,2.7,0.5
	l3.3,139.8C144.9,1846.4,144.4,1846.5,143.9,1846.7z M135.6,1703.8l-29.5,39.1l-11.6-31.7c2.6-1.2,4.7-3.4,5.6-6.3
	c0.4-1.2,0.6-2.4,0.6-3.6l31.5-3.4C132.7,1700.1,133.9,1702.2,135.6,1703.8z M84.3,1692.1L2.1,1581.3l54.2-35.7
	c1.3,1.6,2.9,2.8,5,3.5c1.4,0.5,2.8,0.6,4.2,0.6l21.8,141.2C86.2,1691.1,85.2,1691.5,84.3,1692.1z M68.3,1528.5
	c-1.7-0.6-3.4-0.7-5-0.5l-41-172.4l174.4-54.9c0.8,1.8,2,3.4,3.7,4.6L69.4,1529C69,1528.8,68.7,1528.6,68.3,1528.5z M208.2,1285.8
	c-1.2-0.2-2.4-0.1-3.6,0.1l-55-189.8c1.1-0.4,2.1-1,3-1.7l81.1,84.4L208.2,1285.8z M154.1,1093c0.9-1,1.6-2.2,2.1-3.6
	c1.4-4.1,0.2-8.4-2.7-11.2l142.2-167.2c0.6,0.4,1.2,0.7,1.8,1l-63.1,264.5L154.1,1093z M295.6,893.1l-83.1-97.9l96.8-68.5
	c1.2,1.4,2.8,2.6,4.8,3.2c0.5,0.2,1,0.3,1.6,0.4l-13.9,160.8C299.6,891.1,297.4,891.8,295.6,893.1z M322,709.7l65.1-191.8l39.1,35.9
	L322.7,710.1C322.5,710,322.3,709.8,322,709.7z M388.7,516.6c5.1,0.7,10.1-2.2,11.8-7.3c1.1-3.3,0.6-6.7-1.2-9.4l127.1-99.7
	c0.3,0.3,0.6,0.6,1,0.9L427.4,552.1L388.7,516.6z M531.5,382.1c-1.8,0.5-3.4,1.4-4.8,2.7l-209-180.7l160.9-87.2
	c1.3,1.9,3.2,3.5,5.5,4.3c1.4,0.5,2.9,0.7,4.3,0.6L531.5,382.1z M470.6,119l-154.5,83.7l-8.8-7.6c0.6-0.8,1.1-1.8,1.5-2.8
	c0.8-2.3,0.7-4.6,0.1-6.7L470.6,119z M55.7,186.3c-1.2,3.7-0.3,7.5,2,10.2l-116.5-64.8L55.7,186.3z M-98.1,119
	c0.3,1.9,1,3.7,2.2,5.2l-61.1,57.9l-53.8-48.6c0.7-0.9,1.2-1.9,1.6-3c0.4-1.1,0.6-2.2,0.6-3.3L-98.1,119z M-494.8-83.7
	c0.5-0.2,1-0.4,1.5-0.6l146.8,238.2l-63,118c-0.2-0.1-0.4-0.2-0.6-0.2c-1.8-0.6-3.7-0.7-5.5-0.4L-494.8-83.7z M-261.3,296
	c2.3-0.6,4.4-2,5.9-3.9l204.9,130.4L-196,594.9c-0.8-0.6-1.7-1-2.7-1.4c-1.5-0.5-3.1-0.7-4.6-0.5L-261.3,296z M-191.6,601.3
	c-0.1-0.3-0.1-0.5-0.2-0.8L53.3,498.6c0.2,0.3,0.3,0.6,0.5,0.9l-88.5,74.8c-1.1-1-2.3-1.7-3.8-2.2c-5.7-1.9-11.9,1.1-13.8,6.8
	c-0.4,1.3-0.6,2.6-0.6,3.9L-191.6,601.3z M-44.5,592.9c1.7,0.4,3.4,0.4,4.9,0l84.2,306.2c-3.3,1-6,3.5-7.2,6.9
	c-0.5,1.6-0.7,3.1-0.5,4.7l-164.5,33.6c-1-3.2-3.4-5.9-6.7-7.1L-44.5,592.9z M-141.4,957.8c4.3,1.5,9,0,11.8-3.3l15.7,11.1
	l-162.2,57.3l129.1-69.4C-145.7,955.5-143.8,957-141.4,957.8z M-283.1,1037.9c1-0.5,1.8-1.1,2.6-1.9l162.1,138.4l-71.2,74
	c-1-0.8-2.1-1.4-3.3-1.8c-2.2-0.8-4.5-0.7-6.6-0.1L-283.1,1037.9z M-191,1266.4c2.2-1.3,4.1-3.3,5-6c0.2-0.5,0.3-1,0.4-1.4
	l177.2,17.3c0,2.5,0.8,4.9,2.3,6.8l-117.6,111.3c-1.1-1-2.4-1.9-3.9-2.4c-2.4-0.8-4.8-0.7-7,0L-191,1266.4z M-151.2,1683.3
	c1.2,1.3,2.7,2.3,4.5,2.9c1.8,0.6,3.7,0.7,5.4,0.4l19.8,66.4l-164,40.9c-0.3-1.1-0.7-2.1-1.3-3L-151.2,1683.3z M-315,2024.9
	c0.3-0.5,0.6-1.1,0.8-1.7c0.5-1.4,0.7-2.9,0.6-4.3l99.1-21.5l40.1,95.7c-1.3,0.9-2.4,2-3.3,3.4L-315,2024.9z M-158,2099.6
	c-0.4-1.5-1-2.9-2-4.1l119-92l32.4,72.7c-2.3,1.3-4.1,3.3-5,6c-0.4,1.2-0.6,2.4-0.6,3.5L-158,2099.6z M1.8,2076.2
	c-0.5-0.3-1-0.5-1.6-0.7c-2.4-0.8-4.8-0.7-7,0l-32.6-73.2l178.1-137.7c0.4,0.4,0.8,0.7,1.2,1.1L1.8,2076.2z M137.2,1686.5
	c-2.1,1.3-3.7,3.3-4.6,5.8c-0.4,1.2-0.6,2.4-0.6,3.6l-31.5,3.4c-0.7-3.7-3.4-6.9-7.2-8.2c-1.4-0.5-2.8-0.6-4.2-0.6l-21.8-141.2
	c0.4-0.1,0.9-0.2,1.3-0.4L137.2,1686.5z M73.7,1532.6c-0.7-1-1.6-1.9-2.6-2.7l130.9-223.6c0.4,0.2,0.7,0.3,1.1,0.4
	c5.6,1.9,11.6-1,13.6-6.4l172.9,48.5c-0.4,2.2-0.1,4.4,0.8,6.4L73.7,1532.6z M393.7,1342.3l-157.7-164.2l62.4-261.5l98.6,423.9
	C395.8,1340.9,394.7,1341.5,393.7,1342.3z M327.2,714.6c-0.7-1.3-1.6-2.4-2.8-3.4l103.3-156l87.9,80.9L327.2,714.6z M516.6,634.3
	l-87.8-80.7l100.3-151.3c0.5,0.3,1.1,0.5,1.6,0.7c0.6,0.2,1.2,0.3,1.8,0.4L516.6,634.3z M518.8,632.1l15.7-228.6
	c4.4-0.1,8.5-2.9,10-7.4c1.5-4.5-0.1-9.4-3.7-12.2l144.3-53.3c0.8,1.7,2,3.1,3.6,4.2L518.8,632.1z"/>
<g id="Слой_2">
	<circle class="st1" cx="695" cy="325.9" r="10.9"/>
	<circle class="st1" cx="534" cy="392.9" r="10.9"/>
	<circle class="st1" cx="390" cy="505.9" r="10.9"/>
	<circle class="st1" cx="517.8" cy="636.9" r="10.9"/>
	<circle class="st1" cx="487.5" cy="110.9" r="10.9"/>
	<circle class="st1" cx="298.5" cy="188.9" r="10.9"/>
	<circle class="st1" cx="190.8" cy="271.9" r="10.9"/>
	<circle class="st1" cx="215.3" cy="499.4" r="10.9"/>
	<circle class="st1" cx="317.9" cy="719.9" r="10.9"/>
	<circle class="st1" cx="301.8" cy="902.4" r="10.9"/>
	<circle class="st1" cx="206.5" cy="1296.4" r="10.9"/>
	<circle class="st1" cx="400.5" cy="1350.7" r="10.9"/>
	<circle class="st1" cx="65" cy="1538.9" r="10.9"/>
	<circle class="st1" cx="142.9" cy="1695.7" r="10.9"/>
	<circle class="st1" cx="90.2" cy="1701.3" r="11.3"/>
	<circle class="st1" cx="146.8" cy="1857.2" r="10.9"/>
	<circle class="st1" cx="-58.2" cy="1962.2" r="10.9"/>
	<circle class="st1" cx="-3.2" cy="2085.7" r="10.9"/>
	<circle class="st1" cx="-168.7" cy="2102.2" r="10.9"/>
	<circle class="st1" cx="-143" cy="1675.8" r="10.9"/>
	<circle class="st1" cx="-131.2" cy="1402.4" r="10.9"/>
	<circle class="st1" cx="2.3" cy="1276" r="10.9"/>
	<circle class="st1" cx="-196.2" cy="1257.2" r="10.9"/>
	<circle class="st1" cx="4.8" cy="1048" r="10.9"/>
	<circle class="st1" cx="-137.7" cy="947.4" r="10.9"/>
	<circle class="st1" cx="-42.2" cy="582.4" r="10.9"/>
	<circle class="st1" cx="-202.4" cy="604.1" r="11"/>
	<circle class="st1" cx="18.8" cy="342.2" r="10.9"/>
	<circle class="st1" cx="-264" cy="285.2" r="10.9"/>
	<circle class="st1" cx="-87.2" cy="117.7" r="10.9"/>
	<circle class="st1" cx="-219.5" cy="126.9" r="10.9"/>
	<circle class="st1" cx="-229.7" cy="-63.3" r="10.9"/>
	<circle class="st1" cx="-498.1" cy="-94" r="10.9"/>
	<circle class="st1" cx="-413.7" cy="281.9" r="10.9"/>
	<circle class="st1" cx="-288" cy="1028.4" r="10.9"/>
	<circle class="st1" cx="191.5" cy="80.7" r="10.9"/>
	<circle class="st1" cx="66" cy="189.9" r="10.9"/>
	<circle class="st1" cx="62.8" cy="493.2" r="10.9"/>
	<circle class="st1" cx="78.3" cy="638.2" r="10.9"/>
	<circle class="st1" cx="47.8" cy="909.4" r="10.9"/>
	<circle class="st1" cx="145.8" cy="1085.9" r="10.9"/>
	<circle class="st1" cx="-324.5" cy="2019.8" r="10.9"/>
	<circle class="st1" cx="-296" cy="1796.8" r="10.9"/>
</g>
</svg>
